<svg version="1.1" xmlns="http://www.w3.org/2000/svg" style="display: block;" viewBox="0 0 2048 2048" width="1254" height="1254" preserveAspectRatio="none">
<path transform="translate(0,0)" fill="rgb(0,0,0)" d="M 0 0 L 2048 0 L 2048 2048 L 0 2048 L 0 0 z"/>
<path transform="translate(0,0)" fill="rgb(14,195,130)" d="M 550.306 754.296 C 563.403 754.193 620.69 752.53 628.458 756.82 C 644.574 765.721 678.993 793.453 695.209 805.834 L 890.834 955.5 L 945.19 996.977 C 957.67 1006.68 980.165 1025.88 993.722 1032 C 1014.64 1041.43 1008.2 981.348 1008.3 971.5 L 1008.38 822.12 C 1008.32 805.72 1007.33 787.795 1009.56 771.815 C 1010.93 762.012 1025.44 754.13 1033.83 754.53 C 1049.25 755.265 1099.64 750.9 1111.39 756.843 C 1127.94 765.22 1156.21 788.906 1171.64 800.585 L 1273.08 877.142 L 1506.37 1052.92 C 1550.1 1085.88 1593.59 1119.17 1637.11 1152.39 C 1646.12 1159.27 1652.49 1168.6 1647.63 1180.23 C 1641.04 1195.97 1622.54 1193.32 1608.6 1193.27 C 1547.76 1193.05 1486.87 1193.67 1426.04 1193.04 C 1421.13 1192.99 1415.38 1192.51 1411.36 1189.65 C 1397.79 1180.75 1385.12 1170.05 1372.32 1160.02 L 1300.48 1103.78 L 1202.25 1027.41 C 1197.31 1023.57 1192.12 1019.21 1187.1 1015.56 C 1178.67 1009.42 1167.81 995.829 1156.33 1000.86 C 1152.75 1002.46 1149.98 1005.47 1148.7 1009.18 C 1146.98 1013.99 1147.38 1018.94 1149.92 1023.38 C 1155.67 1033.44 1171.52 1044.88 1180.59 1052.95 C 1194.05 1064.93 1295.42 1151.87 1300.1 1161.8 C 1302.67 1167.24 1303.25 1173.12 1301.03 1178.79 C 1298.73 1184.65 1293.91 1189.21 1288.09 1191.55 C 1278.12 1195.55 1159.48 1193.18 1137.11 1193.19 L 995.757 1193.31 C 988.439 1193.31 939.089 1194.02 935.665 1192.59 C 918.888 1185.59 869.319 1144.32 855.241 1133.3 L 728.645 1034.37 C 719.195 1026.99 684.379 994.557 674.512 1000.62 C 649.098 1016.25 683.559 1039.68 695.807 1050.71 L 769.626 1116.52 C 783.41 1128.68 798.337 1140.41 811.157 1153.58 C 813.982 1156.48 816.619 1159.8 818.412 1163.45 C 820.819 1168.34 820.713 1173.26 818.743 1178.3 C 816.342 1184.44 810.891 1189.6 804.733 1191.92 C 797.621 1194.6 574.676 1194.23 550.658 1193.12 C 547.43 1192.97 544.371 1192.71 541.43 1191.26 C 535.346 1188.27 529.523 1182.05 527.83 1175.36 C 524.725 1163.1 526.742 1144.14 526.759 1131.04 L 526.845 1042.89 L 526.929 848.914 C 527.038 827.031 526.431 805.042 526.566 783.173 C 526.604 777.188 528.102 770.151 531.553 765.202 C 536.634 757.916 541.967 755.835 550.306 754.296 z"/>
</svg>